<svg width="42" height="42" viewBox="0 0 42 42" fill="none" xmlns="http://www.w3.org/2000/svg">
<path d="M32.2731 0H9.72695C4.35573 0 0 4.35573 0 9.72695V32.273C0 37.6452 4.35573 42 9.72695 42H32.2731C37.6452 42 42 37.6452 42 32.273V9.72695C42 4.35573 37.6452 0 32.2731 0ZM17.5649 31.5659C17.1622 31.7848 16.6924 31.953 16.1545 32.0678C15.4834 32.2118 14.783 32.2838 14.0545 32.2838C12.0604 32.2838 10.5071 31.7896 9.39526 30.8023C8.28347 29.8141 7.72709 28.3249 7.72709 26.3299V20.8808C7.72709 20.6659 7.55298 20.4918 7.33801 20.4918H5.84395C5.62899 20.4918 5.45487 20.3167 5.45487 20.1027V16.8247C5.45487 16.6097 5.62899 16.4356 5.84395 16.4356H7.33801C7.55298 16.4356 7.72709 16.2605 7.72709 16.0466V13.3444C7.72709 13.1294 7.9012 12.9553 8.11617 12.9553H12.8026C13.0176 12.9553 13.1917 13.1294 13.1917 13.3444V16.0466C13.1917 16.2605 13.3658 16.4356 13.5808 16.4356H16.3695C16.5845 16.4356 16.7586 16.6097 16.7586 16.8247V20.1027C16.7586 20.3167 16.5845 20.4918 16.3695 20.4918H13.5808C13.3658 20.4918 13.1917 20.6659 13.1917 20.8808V26.2725C13.1917 26.8289 13.3454 27.2646 13.6518 27.5817C13.9591 27.8979 14.3521 28.0554 14.8317 28.0554C15.3112 28.0554 15.7431 27.966 16.1205 27.788C16.3306 27.6887 16.5786 27.7899 16.6555 28.0088L17.7458 31.0932C17.81 31.2741 17.7332 31.4735 17.5649 31.5659ZM36.5461 31.6359C36.5461 31.8499 36.372 32.025 36.157 32.025H31.4706C31.2556 32.025 31.0815 31.8499 31.0815 31.6359V24.0003C31.0815 22.8885 30.8558 22.0782 30.4055 21.5705C29.9551 21.0618 29.3277 20.8079 28.5223 20.8079C27.9465 20.8079 27.4193 20.9373 26.9398 21.196C26.4602 21.4547 26.0867 21.8535 25.8182 22.3895C25.5498 22.9264 25.4156 23.6268 25.4156 24.4886V31.6359C25.4156 31.8499 25.2414 32.025 25.0265 32.025H20.34C20.1251 32.025 19.951 31.8499 19.951 31.6359V11.0712C19.951 10.8572 20.1251 10.6821 20.34 10.6821H25.0265C25.2414 10.6821 25.4156 10.8572 25.4156 11.0712V17.0154C25.4156 17.312 25.7326 17.4988 25.9914 17.3568L26.5954 17.0261C27.6304 16.4599 28.7996 16.1769 30.1039 16.1769C31.312 16.1769 32.4044 16.421 33.3829 16.9103C34.3605 17.3996 35.1318 18.1524 35.6979 19.1679C36.263 20.1844 36.5461 21.4975 36.5461 23.1083V31.6359Z" fill="#E6F4FE"/>
</svg>
